<svg xmlns="http://www.w3.org/2000/svg" width="200" height="40" viewBox="0 0 200 40" fill="none" role="img" aria-label="greentic.ai">
  <defs>
    <linearGradient id="greentic-teal" x1="0" y1="0" x2="1" y2="1">
      <stop offset="0%" stop-color="#22C39E" />
      <stop offset="100%" stop-color="#26C7D9" />
    </linearGradient>
  </defs>
  <g transform="translate(4 6)">
    <circle cx="14" cy="14" r="14" fill="url(#greentic-teal)" />
    <path d="M9 15c0-3.3 2.7-6 6-6 1.7 0 3.2.7 4.3 1.8l-1.8 1.8A3.5 3.5 0 0 0 15 11.5a3.5 3.5 0 1 0 3.4 4.4h-3.1v-2h5.6c.1.4.1.8.1 1.1 0 3.3-2.7 6-6 6s-6-2.7-6-6z" fill="#FFFFFF" />
  </g>
  <text x="38" y="26" font-family="'Poppins', 'Segoe UI', sans-serif" font-size="18" font-weight="700" fill="#0F2A23" letter-spacing="-0.02em">
    greentic<tspan fill="#22C39E">.ai</tspan>
  </text>
</svg>
